<?xml version="1.0" encoding="UTF-8"?>
<!DOCTYPE svg PUBLIC "-//W3C//DTD SVG 1.1//EN" "http://www.w3.org/Graphics/SVG/1.1/DTD/svg11.dtd">
<svg xmlns="http://www.w3.org/2000/svg" version="1.1" width="497px" height="497px" style="shape-rendering:geometricPrecision; text-rendering:geometricPrecision; image-rendering:optimizeQuality; fill-rule:evenodd; clip-rule:evenodd" xmlns:xlink="http://www.w3.org/1999/xlink">
<g><path style="opacity:0.72" fill="#ececec" d="M 245.5,19.5 C 328.559,21.9358 393.726,56.9358 441,124.5C 483.235,194.316 489.568,267.316 460,343.5C 424.129,421.677 363.629,467.844 278.5,482C 190.461,491.118 118.627,461.618 63,393.5C 20.9275,335.819 6.92748,271.819 21,201.5C 40.0032,125.176 85.1699,70.6762 156.5,38C 185.167,26.3675 214.834,20.2009 245.5,19.5 Z"/></g>
<g><path style="opacity:1" fill="#010101" d="M 460.5,171.5 C 461.922,177.767 463.922,183.767 466.5,189.5C 468.383,193.609 469.383,197.943 469.5,202.5C 469.41,205.152 470.076,207.485 471.5,209.5C 471.5,210.167 471.5,210.833 471.5,211.5C 471.28,216.1 471.946,220.433 473.5,224.5C 474.064,238.827 474.397,253.16 474.5,267.5C 467.798,341.762 434.131,400.262 373.5,443C 308.679,483.906 240.012,491.906 167.5,467C 98.1268,438.628 51.9601,388.795 29,317.5C 7.64922,236.903 23.3159,164.57 76,100.5C 141.963,30.7964 221.463,8.29635 314.5,33C 369.479,51.0612 412.312,84.5612 443,133.5C 450.203,145.57 456.036,158.237 460.5,171.5 Z"/></g>
<g><path style="opacity:1" fill="#030303" d="M 318.5,79.5 C 320.074,79.9371 321.241,80.9371 322,82.5C 327.883,92.4147 332.716,102.748 336.5,113.5C 318.965,111.769 301.965,113.769 285.5,119.5C 278.651,121.003 272.317,123.67 266.5,127.5C 265.504,127.586 264.671,127.252 264,126.5C 260.368,117.508 258.202,108.175 257.5,98.5C 279.849,98.3822 300.182,92.0489 318.5,79.5 Z"/></g>
<g><path style="opacity:1" fill="#8f8f8f" d="M 319.5,77.5 C 319.167,78.1667 318.833,78.8333 318.5,79.5C 300.182,92.0489 279.849,98.3822 257.5,98.5C 256.833,98.5 256.167,98.5 255.5,98.5C 255.34,96.8008 255.506,95.1341 256,93.5C 274.549,80.8727 295.049,74.706 317.5,75C 318.381,75.7083 319.047,76.5416 319.5,77.5 Z"/></g>
<g><path style="opacity:1" fill="#040404" d="M 306.5,75.5 C 310.394,75.1098 314.06,75.7765 317.5,77.5C 313.06,82.2294 307.726,85.7294 301.5,88C 289.063,92.8175 276.23,95.9842 263,97.5C 260.625,97.5963 258.459,97.0963 256.5,96C 260.684,91.4901 265.684,88.1567 271.5,86C 282.97,81.3887 294.637,77.8887 306.5,75.5 Z"/></g>
<g><path style="opacity:1" fill="#090909" d="M 341.5,128.5 C 341.238,123.112 339.905,118.112 337.5,113.5C 336.568,109.704 335.234,106.037 333.5,102.5C 338.314,102.096 341.48,104.429 343,109.5C 343.667,116.167 343.667,122.833 343,129.5C 342.617,128.944 342.117,128.611 341.5,128.5 Z"/></g>
<g><path style="opacity:1" fill="#1c1c1c" d="M 337.5,117.5 C 336.473,119.194 335.139,120.527 333.5,121.5C 327.629,123.931 321.629,126.098 315.5,128C 314.167,128.667 312.833,128.667 311.5,128C 320.505,125.169 329.171,121.669 337.5,117.5 Z"/></g>
<g><path style="opacity:1" fill="#0c0c0c" d="M 265.5,129.5 C 268.746,131.58 271.08,134.413 272.5,138C 272.556,142.402 270.556,145.235 266.5,146.5C 268.853,144.461 270.187,141.794 270.5,138.5C 269.723,133.295 267.223,132.295 263,135.5C 261.566,138.525 261.066,141.525 261.5,144.5C 253.511,142.096 251.344,137.096 255,129.5C 257.185,127.46 259.685,126.126 262.5,125.5C 262.468,127.619 263.468,128.952 265.5,129.5 Z"/></g>
<g><path style="opacity:1" fill="#888888" d="M 337.5,113.5 C 339.905,118.112 341.238,123.112 341.5,128.5C 342.593,135.45 342.76,142.45 342,149.5C 341.623,150.942 340.79,151.942 339.5,152.5C 340.484,143.368 338.984,134.701 335,126.5C 334.666,128.847 334.833,131.181 335.5,133.5C 335.666,138.179 335.499,142.845 335,147.5C 329.833,153.333 324.667,159.167 319.5,165C 312.21,171.113 304.877,176.946 297.5,182.5C 293.486,182.666 289.486,182.499 285.5,182C 283.805,179.713 281.805,177.879 279.5,176.5C 281.688,175.377 284.021,175.377 286.5,176.5C 288.714,176.709 290.381,175.876 291.5,174C 292.348,171.23 292.681,168.397 292.5,165.5C 293.158,166.398 293.824,167.398 294.5,168.5C 310.784,157.717 323.784,143.884 333.5,127C 332.663,125.989 332.33,124.822 332.5,123.5C 333.675,123.719 334.675,123.386 335.5,122.5C 335.043,121.702 334.376,121.369 333.5,121.5C 335.139,120.527 336.473,119.194 337.5,117.5C 337.5,116.167 337.5,114.833 337.5,113.5 Z"/></g>
<g><path style="opacity:1" fill="#9a9a9a" d="M 336.5,113.5 C 336.833,113.5 337.167,113.5 337.5,113.5C 337.5,114.833 337.5,116.167 337.5,117.5C 329.171,121.669 320.505,125.169 311.5,128C 312.833,128.667 314.167,128.667 315.5,128C 321.629,126.098 327.629,123.931 333.5,121.5C 334.376,121.369 335.043,121.702 335.5,122.5C 334.675,123.386 333.675,123.719 332.5,123.5C 332.33,124.822 332.663,125.989 333.5,127C 323.784,143.884 310.784,157.717 294.5,168.5C 293.824,167.398 293.158,166.398 292.5,165.5C 291.71,164.206 290.71,163.039 289.5,162C 282.167,158.667 274.833,155.333 267.5,152C 268.756,151.583 269.423,150.75 269.5,149.5C 270.268,150.263 270.768,151.263 271,152.5C 280.811,147.343 289.645,140.843 297.5,133C 297.272,132.601 296.938,132.435 296.5,132.5C 301.055,131.416 305.722,130.249 310.5,129C 307.493,128.699 304.493,128.865 301.5,129.5C 302.581,127.236 303.915,125.069 305.5,123C 302.5,122.667 299.5,122.333 296.5,122C 295.185,120.605 295.519,119.605 297.5,119C 294.033,119.096 290.7,119.93 287.5,121.5C 287.5,120.167 286.833,119.5 285.5,119.5C 301.965,113.769 318.965,111.769 336.5,113.5 Z"/></g>
<g><path style="opacity:1" fill="#0c0c0c" d="M 312.5,115.5 C 315.85,115.335 319.183,115.502 322.5,116C 316.945,119.544 310.945,120.711 304.5,119.5C 304.667,119.167 304.833,118.833 305,118.5C 307.48,117.188 309.98,116.188 312.5,115.5 Z"/></g>
<g><path style="opacity:1" fill="#2a2a2a" d="M 296.5,132.5 C 288.179,133.352 279.846,133.519 271.5,133C 281.527,131.97 291.527,130.803 301.5,129.5C 304.493,128.865 307.493,128.699 310.5,129C 305.722,130.249 301.055,131.416 296.5,132.5 Z"/></g>
<g><path style="opacity:1" fill="#acacac" d="M 301.5,129.5 C 291.527,130.803 281.527,131.97 271.5,133C 279.846,133.519 288.179,133.352 296.5,132.5C 296.938,132.435 297.272,132.601 297.5,133C 289.645,140.843 280.811,147.343 271,152.5C 270.768,151.263 270.268,150.263 269.5,149.5C 269.179,147.952 268.179,147.285 266.5,147.5C 266.5,147.167 266.5,146.833 266.5,146.5C 270.556,145.235 272.556,142.402 272.5,138C 271.08,134.413 268.746,131.58 265.5,129.5C 265.833,128.833 266.167,128.167 266.5,127.5C 272.317,123.67 278.651,121.003 285.5,119.5C 286.833,119.5 287.5,120.167 287.5,121.5C 290.7,119.93 294.033,119.096 297.5,119C 295.519,119.605 295.185,120.605 296.5,122C 299.5,122.333 302.5,122.667 305.5,123C 303.915,125.069 302.581,127.236 301.5,129.5 Z"/></g>
<g><path style="opacity:1" fill="#666666" d="M 287.5,121.5 C 292.067,123.285 297.067,124.118 302.5,124C 296.857,125.684 291.19,125.851 285.5,124.5C 285.285,122.821 285.952,121.821 287.5,121.5 Z"/></g>
<g><path style="opacity:1" fill="#717171" d="M 255.5,98.5 C 256.167,98.5 256.833,98.5 257.5,98.5C 258.202,108.175 260.368,117.508 264,126.5C 264.671,127.252 265.504,127.586 266.5,127.5C 266.167,128.167 265.833,128.833 265.5,129.5C 263.468,128.952 262.468,127.619 262.5,125.5C 259.685,126.126 257.185,127.46 255,129.5C 251.344,137.096 253.511,142.096 261.5,144.5C 261.066,141.525 261.566,138.525 263,135.5C 267.223,132.295 269.723,133.295 270.5,138.5C 270.187,141.794 268.853,144.461 266.5,146.5C 266.5,146.833 266.5,147.167 266.5,147.5C 261.92,147.113 257.586,147.947 253.5,150C 251.683,151.8 250.516,153.966 250,156.5C 248.959,153.364 249.793,150.864 252.5,149C 254.957,147.438 257.624,146.438 260.5,146C 258.083,144.374 255.583,142.874 253,141.5C 251.029,137.114 251.195,132.78 253.5,128.5C 256.473,127.19 258.807,125.19 260.5,122.5C 257.868,114.646 256.201,106.646 255.5,98.5 Z"/></g>
<g><path style="opacity:1" fill="#0b0b0b" d="M 265.5,135.5 C 266.5,135.5 267.5,135.5 268.5,135.5C 268.662,137.527 268.495,139.527 268,141.5C 266.519,144.064 265.019,144.064 263.5,141.5C 265.409,139.65 266.076,137.65 265.5,135.5 Z"/></g>
<g><path style="opacity:1" fill="#7c7c7c" d="M 335.5,133.5 C 336.656,140.989 336.822,148.655 336,156.5C 335.226,162.626 333.393,168.292 330.5,173.5C 325.468,177.86 320.135,181.86 314.5,185.5C 312.283,184.631 309.95,184.298 307.5,184.5C 307.5,184.167 307.5,183.833 307.5,183.5C 309.527,183.662 311.527,183.495 313.5,183C 308.232,181.173 302.899,181.006 297.5,182.5C 304.877,176.946 312.21,171.113 319.5,165C 324.667,159.167 329.833,153.333 335,147.5C 335.499,142.845 335.666,138.179 335.5,133.5 Z"/></g>
<g><path style="opacity:1" fill="#1d2020" d="M 232.5,160.5 C 220.651,158.076 210.651,161.076 202.5,169.5C 205.282,163.579 209.949,159.746 216.5,158C 220.5,157.333 224.5,157.333 228.5,158C 230.32,158.2 231.653,159.034 232.5,160.5 Z"/></g>
<g><path style="opacity:1" fill="#262626" d="M 339.5,152.5 C 338.016,161.469 334.849,169.802 330,177.5C 329.421,176.072 329.588,174.738 330.5,173.5C 333.393,168.292 335.226,162.626 336,156.5C 336.822,148.655 336.656,140.989 335.5,133.5C 334.833,131.181 334.666,128.847 335,126.5C 338.984,134.701 340.484,143.368 339.5,152.5 Z"/></g>
<g><path style="opacity:1" fill="#696969" d="M 319.5,77.5 C 324.647,83.7751 328.814,90.7751 332,98.5C 339.676,99.5092 344.009,103.843 345,111.5C 344.201,126.468 343.535,141.468 343,156.5C 340.347,167.461 335.847,177.461 329.5,186.5C 328.305,192.757 328.639,199.09 330.5,205.5C 328.642,207.697 326.308,209.031 323.5,209.5C 322.68,207.188 321.847,204.854 321,202.5C 319.989,201.663 318.822,201.33 317.5,201.5C 319.062,200.215 320.396,198.715 321.5,197C 321.046,195.378 320.046,194.212 318.5,193.5C 315.716,194.392 313.05,195.558 310.5,197C 311.566,198.159 311.233,198.992 309.5,199.5C 309.5,197.833 309.5,196.167 309.5,194.5C 311.655,194.628 313.655,194.128 315.5,193C 314.584,192.722 313.918,192.222 313.5,191.5C 314.461,189.735 314.795,187.735 314.5,185.5C 320.135,181.86 325.468,177.86 330.5,173.5C 329.588,174.738 329.421,176.072 330,177.5C 334.849,169.802 338.016,161.469 339.5,152.5C 340.79,151.942 341.623,150.942 342,149.5C 342.76,142.45 342.593,135.45 341.5,128.5C 342.117,128.611 342.617,128.944 343,129.5C 343.667,122.833 343.667,116.167 343,109.5C 341.48,104.429 338.314,102.096 333.5,102.5C 335.234,106.037 336.568,109.704 337.5,113.5C 337.167,113.5 336.833,113.5 336.5,113.5C 332.716,102.748 327.883,92.4147 322,82.5C 321.241,80.9371 320.074,79.9371 318.5,79.5C 318.833,78.8333 319.167,78.1667 319.5,77.5 Z"/></g>
<g><path style="opacity:1" fill="#b6babf" d="M 231.5,170.5 C 226.537,169.504 221.537,169.337 216.5,170C 215.29,171.039 214.29,172.206 213.5,173.5C 210.971,174.543 210.138,173.543 211,170.5C 216.323,166.18 222.49,164.346 229.5,165C 230,164.5 230.5,164 231,163.5C 231.497,165.81 231.663,168.143 231.5,170.5 Z"/></g>
<g><path style="opacity:1" fill="#050505" d="M 279.5,176.5 C 281.805,177.879 283.805,179.713 285.5,182C 289.486,182.499 293.486,182.666 297.5,182.5C 302.899,181.006 308.232,181.173 313.5,183C 311.527,183.495 309.527,183.662 307.5,183.5C 300,184.668 298.667,188.168 303.5,194C 305.167,194.333 306.833,194.667 308.5,195C 300.389,196.642 292.389,197.475 284.5,197.5C 283.081,195.664 281.914,193.664 281,191.5C 280.82,193.488 280.986,195.488 281.5,197.5C 271.352,199.935 265.352,196.102 263.5,186C 265.126,182.291 266.459,178.457 267.5,174.5C 271.574,174.782 275.574,175.448 279.5,176.5 Z"/></g>
<g><path style="opacity:1" fill="#4a4a4a" d="M 460.5,171.5 C 463.473,177.085 465.473,183.085 466.5,189.5C 463.922,183.767 461.922,177.767 460.5,171.5 Z"/></g>
<g><path style="opacity:1" fill="#1e2223" d="M 190.5,185.5 C 187.32,181.717 183.987,177.884 180.5,174C 175.363,171.753 170.03,171.086 164.5,172C 159.174,173.669 154.174,175.836 149.5,178.5C 158.665,169.379 169.331,167.212 181.5,172C 186.133,175.44 189.133,179.94 190.5,185.5 Z"/></g>
<g><path style="opacity:1" fill="#383f40" d="M 190.5,185.5 C 193.944,197.611 196.944,209.944 199.5,222.5C 194.456,215.383 191.956,207.383 192,198.5C 190.651,191.968 187.818,186.135 183.5,181C 181.846,180.392 180.179,179.892 178.5,179.5C 178.423,178.25 177.756,177.417 176.5,177C 170.177,175.065 163.843,175.065 157.5,177C 156.833,178 156.167,179 155.5,180C 152.635,180.183 149.969,180.683 147.5,181.5C 146.282,179.668 146.949,178.668 149.5,178.5C 154.174,175.836 159.174,173.669 164.5,172C 170.03,171.086 175.363,171.753 180.5,174C 183.987,177.884 187.32,181.717 190.5,185.5 Z"/></g>
<g><path style="opacity:1" fill="#61696d" d="M 178.5,179.5 C 170.373,176.379 162.706,177.212 155.5,182C 152.937,182.126 150.604,182.293 148.5,182.5C 147.833,182.5 147.5,182.167 147.5,181.5C 149.969,180.683 152.635,180.183 155.5,180C 156.167,179 156.833,178 157.5,177C 163.843,175.065 170.177,175.065 176.5,177C 177.756,177.417 178.423,178.25 178.5,179.5 Z"/></g>
<g><path style="opacity:1" fill="#c2c6cb" d="M 178.5,179.5 C 181.025,182.691 181.025,185.691 178.5,188.5C 175.397,181.121 170.064,178.954 162.5,182C 158.996,183.918 155.663,186.084 152.5,188.5C 150.663,186.824 149.33,184.824 148.5,182.5C 150.604,182.293 152.937,182.126 155.5,182C 162.706,177.212 170.373,176.379 178.5,179.5 Z"/></g>
<g><path style="opacity:1" fill="#9da3a9" d="M 86.5,186.5 C 85.2616,184.786 84.595,182.786 84.5,180.5C 84.5,179.5 84.5,178.5 84.5,177.5C 87.6202,177.874 88.9535,179.707 88.5,183C 88.3917,184.681 87.7251,185.848 86.5,186.5 Z"/></g>
<g><path style="opacity:1" fill="#2c3333" d="M 113.5,187.5 C 108.235,186.817 102.902,186.65 97.5,187C 94.8693,184.069 93.536,180.569 93.5,176.5C 90.1194,176.54 86.7861,176.207 83.5,175.5C 86.9328,172.941 90.5995,170.608 94.5,168.5C 96.1529,174.03 97.1529,179.697 97.5,185.5C 101.749,185.397 105.916,184.73 110,183.5C 112.327,183.822 113.494,185.156 113.5,187.5 Z"/></g>
<g><path style="opacity:1" fill="#0b0b0b" d="M 307.5,184.5 C 309.95,184.298 312.283,184.631 314.5,185.5C 314.795,187.735 314.461,189.735 313.5,191.5C 310.997,192.084 308.497,192.751 306,193.5C 302.795,192.202 301.795,189.868 303,186.5C 304.622,185.901 306.122,185.234 307.5,184.5 Z"/></g>
<g><path style="opacity:1" fill="#495153" d="M 83.5,175.5 C 86.7861,176.207 90.1194,176.54 93.5,176.5C 93.536,180.569 94.8693,184.069 97.5,187C 102.902,186.65 108.235,186.817 113.5,187.5C 113.5,188.167 113.5,188.833 113.5,189.5C 107.099,188.902 101.099,190.068 95.5,193C 90.8452,193.499 86.1785,193.666 81.5,193.5C 80.1667,193.5 79.5,194.167 79.5,195.5C 78.5655,194.432 78.2322,193.099 78.5,191.5C 81.1667,191.5 83.8333,191.5 86.5,191.5C 86.5,189.833 86.5,188.167 86.5,186.5C 87.7251,185.848 88.3917,184.681 88.5,183C 88.9535,179.707 87.6202,177.874 84.5,177.5C 84.5,178.5 84.5,179.5 84.5,180.5C 83.5489,179.081 83.2155,177.415 83.5,175.5 Z"/></g>
<g><path style="opacity:1" fill="#434b4d" d="M 232.5,160.5 C 232.813,164.042 232.479,167.375 231.5,170.5C 231.663,168.143 231.497,165.81 231,163.5C 230.5,164 230,164.5 229.5,165C 222.49,164.346 216.323,166.18 211,170.5C 210.138,173.543 210.971,174.543 213.5,173.5C 213.5,174.167 213.5,174.833 213.5,175.5C 211.853,178.752 212.52,181.586 215.5,184C 220.097,185.586 224.764,186.919 229.5,188C 230.942,188.377 231.942,189.21 232.5,190.5C 226.846,189.945 221.18,189.445 215.5,189C 210.801,186.815 207.135,183.481 204.5,179C 203.207,178.51 201.873,178.343 200.5,178.5C 200.42,175.219 201.087,172.219 202.5,169.5C 210.651,161.076 220.651,158.076 232.5,160.5 Z"/></g>
<g><path style="opacity:1" fill="#202626" d="M 213.5,175.5 C 213.081,178.325 214.081,180.491 216.5,182C 224.414,183.177 231.747,185.844 238.5,190C 241.702,193.567 243.368,197.734 243.5,202.5C 241.653,198.627 239.32,194.96 236.5,191.5C 235.311,190.571 233.978,190.238 232.5,190.5C 231.942,189.21 230.942,188.377 229.5,188C 224.764,186.919 220.097,185.586 215.5,184C 212.52,181.586 211.853,178.752 213.5,175.5 Z"/></g>
<g><path style="opacity:1" fill="#d3d6db" d="M 113.5,194.5 C 110.097,194.851 106.763,195.518 103.5,196.5C 102.833,196.5 102.167,196.5 101.5,196.5C 100.957,196.44 100.624,196.107 100.5,195.5C 103.437,193.799 106.603,192.799 110,192.5C 111.681,192.608 112.848,193.275 113.5,194.5 Z"/></g>
<g><path style="opacity:1" fill="#494949" d="M 286.5,176.5 C 284.021,175.377 281.688,175.377 279.5,176.5C 275.574,175.448 271.574,174.782 267.5,174.5C 266.459,178.457 265.126,182.291 263.5,186C 265.352,196.102 271.352,199.935 281.5,197.5C 280.986,195.488 280.82,193.488 281,191.5C 281.914,193.664 283.081,195.664 284.5,197.5C 292.389,197.475 300.389,196.642 308.5,195C 306.833,194.667 305.167,194.333 303.5,194C 298.667,188.168 300,184.668 307.5,183.5C 307.5,183.833 307.5,184.167 307.5,184.5C 306.122,185.234 304.622,185.901 303,186.5C 301.795,189.868 302.795,192.202 306,193.5C 308.497,192.751 310.997,192.084 313.5,191.5C 313.918,192.222 314.584,192.722 315.5,193C 313.655,194.128 311.655,194.628 309.5,194.5C 309.5,196.167 309.5,197.833 309.5,199.5C 311.233,198.992 311.566,198.159 310.5,197C 313.05,195.558 315.716,194.392 318.5,193.5C 320.046,194.212 321.046,195.378 321.5,197C 320.396,198.715 319.062,200.215 317.5,201.5C 314.68,204.081 311.346,205.914 307.5,207C 300.526,208.385 293.526,209.551 286.5,210.5C 278.306,210.638 273.973,206.638 273.5,198.5C 271.345,198.628 269.345,198.128 267.5,197C 264.1,193.047 262.267,188.547 262,183.5C 263.504,180.316 265.004,177.149 266.5,174C 260.953,171.147 255.287,168.481 249.5,166C 248.39,163.263 248.223,160.429 249,157.5C 249.344,164.844 253.177,168.344 260.5,168C 261.227,166.601 261.727,165.101 262,163.5C 262.186,165.9 262.686,168.234 263.5,170.5C 268.605,172.887 273.938,174.054 279.5,174C 276.715,169.807 277.048,165.807 280.5,162C 284.506,161.558 288.006,162.724 291,165.5C 292.224,170.374 290.724,174.041 286.5,176.5 Z"/></g>
<g><path style="opacity:1" fill="#060606" d="M 280.5,163.5 C 288.549,162.372 291.216,165.539 288.5,173C 285.571,173.777 282.737,173.61 280,172.5C 280.425,170.945 281.258,169.445 282.5,168C 281.586,166.594 280.92,165.094 280.5,163.5 Z"/></g>
<g><path style="opacity:1" fill="#5f676a" d="M 113.5,189.5 C 114.833,191.167 114.833,192.833 113.5,194.5C 112.848,193.275 111.681,192.608 110,192.5C 106.603,192.799 103.437,193.799 100.5,195.5C 100.624,196.107 100.957,196.44 101.5,196.5C 101.789,203.178 102.289,209.844 103,216.5C 105.145,222.736 107.145,229.069 109,235.5C 114.292,236.708 119.459,238.374 124.5,240.5C 125.686,241.961 125.686,243.295 124.5,244.5C 124.5,244.167 124.5,243.833 124.5,243.5C 124.389,242.883 124.056,242.383 123.5,242C 117.833,241.667 112.167,241.333 106.5,241C 102.822,234.73 99.8219,228.23 97.5,221.5C 94.6111,213.447 92.6111,205.113 91.5,196.5C 88.8127,196.664 86.146,196.497 83.5,196C 82.6195,195.292 81.9528,194.458 81.5,193.5C 86.1785,193.666 90.8452,193.499 95.5,193C 101.099,190.068 107.099,188.902 113.5,189.5 Z"/></g>
<g><path style="opacity:1" fill="#262b2c" d="M 178.5,189.5 C 179.801,190.884 179.801,192.384 178.5,194C 173.17,195.465 168.17,197.465 163.5,200C 159.259,203.345 155.592,207.178 152.5,211.5C 153.466,206.078 156.133,201.578 160.5,198C 166.366,194.667 172.366,191.834 178.5,189.5 Z"/></g>
<g><path style="opacity:1" fill="#babec3" d="M 231.5,203.5 C 231.5,202.833 231.167,202.5 230.5,202.5C 230.084,200.248 228.751,198.748 226.5,198C 219.398,196.892 212.731,194.558 206.5,191C 204.611,188.618 202.945,186.118 201.5,183.5C 201.343,182.127 201.51,180.793 202,179.5C 204.139,182.939 206.639,186.106 209.5,189C 218.355,189.342 225.855,192.509 232,198.5C 232.78,200.387 232.613,202.054 231.5,203.5 Z"/></g>
<g><path style="opacity:1" fill="#030303" d="M 309.5,199.5 C 309.703,201.044 310.37,202.378 311.5,203.5C 310.975,204.192 310.308,204.692 309.5,205C 299.251,208.232 288.918,208.899 278.5,207C 276.253,205.005 275.253,202.505 275.5,199.5C 286.633,199.865 297.633,198.865 308.5,196.5C 308.263,197.791 308.596,198.791 309.5,199.5 Z"/></g>
<g><path style="opacity:1" fill="#333a3b" d="M 145.5,235.5 C 144.209,235.737 143.209,235.404 142.5,234.5C 140.235,213.874 135.402,193.874 128,174.5C 126.757,175.336 125.59,175.003 124.5,173.5C 123.212,168.434 121.712,163.434 120,158.5C 118.981,157.313 117.814,156.313 116.5,155.5C 115.893,155.624 115.56,155.957 115.5,156.5C 115.5,157.833 115.5,159.167 115.5,160.5C 114.532,158.393 114.198,156.059 114.5,153.5C 117.999,152.9 121.499,152.234 125,151.5C 126.326,151.755 127.326,152.422 128,153.5C 134.152,180.772 139.985,208.106 145.5,235.5 Z"/></g>
<g><path style="opacity:1" fill="#1f2323" d="M 77.5,217.5 C 75.2143,212.27 72.381,207.27 69,202.5C 62.5806,197.817 55.414,196.317 47.5,198C 42.6738,200.036 38.0071,202.203 33.5,204.5C 43.3152,194.509 54.6485,192.342 67.5,198C 73.0891,203.345 76.4224,209.845 77.5,217.5 Z"/></g>
<g><path style="opacity:1" fill="#a2a7ae" d="M 115.5,156.5 C 116.794,157.29 117.961,158.29 119,159.5C 123.228,174.313 126.728,189.313 129.5,204.5C 129.5,205.833 129.5,207.167 129.5,208.5C 128.194,205.662 127.027,202.662 126,199.5C 125.536,200.094 125.369,200.761 125.5,201.5C 122.274,187.816 118.941,174.149 115.5,160.5C 115.5,159.167 115.5,157.833 115.5,156.5 Z"/></g>
<g><path style="opacity:1" fill="#535b5d" d="M 115.5,156.5 C 115.56,155.957 115.893,155.624 116.5,155.5C 117.814,156.313 118.981,157.313 120,158.5C 121.712,163.434 123.212,168.434 124.5,173.5C 125.59,175.003 126.757,175.336 128,174.5C 135.402,193.874 140.235,213.874 142.5,234.5C 141.351,234.209 140.684,233.376 140.5,232C 139.347,221.569 135.68,212.403 129.5,204.5C 126.728,189.313 123.228,174.313 119,159.5C 117.961,158.29 116.794,157.29 115.5,156.5 Z"/></g>
<g><path style="opacity:1" fill="#bcc0c6" d="M 81.5,193.5 C 81.9528,194.458 82.6195,195.292 83.5,196C 86.146,196.497 88.8127,196.664 91.5,196.5C 92.6111,205.113 94.6111,213.447 97.5,221.5C 97.3359,224.187 97.5026,226.854 98,229.5C 99.9428,234.447 102.11,239.28 104.5,244C 106.909,244.935 109.409,245.435 112,245.5C 116.082,244.38 120.248,243.713 124.5,243.5C 124.5,243.833 124.5,244.167 124.5,244.5C 111.529,252.401 102.362,249.401 97,235.5C 94.3055,223.86 91.8055,212.193 89.5,200.5C 86.9339,200.344 84.4339,200.678 82,201.5C 79.9655,200.056 79.1322,198.056 79.5,195.5C 79.5,194.167 80.1667,193.5 81.5,193.5 Z"/></g>
<g><path style="opacity:1" fill="#c7cacf" d="M 63.5,213.5 C 59.7136,206.46 54.047,204.626 46.5,208C 43.1466,209.677 40.1466,211.843 37.5,214.5C 35.7484,212.754 34.4151,210.754 33.5,208.5C 40.0324,206.394 46.8657,204.728 54,203.5C 58.1376,204.08 61.8042,205.747 65,208.5C 65.1667,209.333 65.3333,210.167 65.5,211C 65.3158,212.376 64.6491,213.209 63.5,213.5 Z"/></g>
<g><path style="opacity:1" fill="#606060" d="M 469.5,202.5 C 470.924,204.515 471.59,206.848 471.5,209.5C 470.076,207.485 469.41,205.152 469.5,202.5 Z"/></g>
<g><path style="opacity:1" fill="#5e6568" d="M 178.5,179.5 C 180.179,179.892 181.846,180.392 183.5,181C 187.818,186.135 190.651,191.968 192,198.5C 191.956,207.383 194.456,215.383 199.5,222.5C 200.11,223.391 200.443,224.391 200.5,225.5C 196.807,224.94 193.14,224.273 189.5,223.5C 189.209,222.351 188.376,221.684 187,221.5C 186.167,221.667 185.333,221.833 184.5,222C 177.678,230.353 169.678,231.686 160.5,226C 158.623,223.749 157.123,221.249 156,218.5C 154.959,216.689 153.793,216.355 152.5,217.5C 152.5,219.167 152.5,220.833 152.5,222.5C 151.167,218.833 151.167,215.167 152.5,211.5C 155.592,207.178 159.259,203.345 163.5,200C 168.17,197.465 173.17,195.465 178.5,194C 179.801,192.384 179.801,190.884 178.5,189.5C 178.5,189.167 178.5,188.833 178.5,188.5C 181.025,185.691 181.025,182.691 178.5,179.5 Z"/></g>
<g><path style="opacity:1" fill="#c3c6cc" d="M 183.5,210.5 C 183.59,207.848 182.924,205.515 181.5,203.5C 181.209,202.351 180.376,201.684 179,201.5C 172.968,202.724 168.134,205.724 164.5,210.5C 163.193,208.777 163.193,206.943 164.5,205C 170.229,200.031 176.729,198.198 184,199.5C 184.564,202.155 185.064,204.821 185.5,207.5C 185.36,209.03 184.693,210.03 183.5,210.5 Z"/></g>
<g><path style="opacity:1" fill="#030404" d="M 181.5,203.5 C 182.397,208.14 182.564,212.806 182,217.5C 178.67,223.283 173.836,224.949 167.5,222.5C 165.126,219.972 164.126,216.972 164.5,213.5C 164.5,212.5 164.5,211.5 164.5,210.5C 168.134,205.724 172.968,202.724 179,201.5C 180.376,201.684 181.209,202.351 181.5,203.5 Z"/></g>
<g><path style="opacity:1" fill="#485051" d="M 77.5,217.5 C 80.2006,227.972 82.5339,238.639 84.5,249.5C 83.5041,249.586 82.6708,249.252 82,248.5C 79.6343,239.732 77.4676,230.899 75.5,222C 71.8063,215.126 67.473,208.626 62.5,202.5C 59.6723,201.116 56.6723,200.449 53.5,200.5C 46.5367,202.378 39.5367,204.045 32.5,205.5C 32.5,204.833 32.8333,204.5 33.5,204.5C 38.0071,202.203 42.6738,200.036 47.5,198C 55.414,196.317 62.5806,197.817 69,202.5C 72.381,207.27 75.2143,212.27 77.5,217.5 Z"/></g>
<g><path style="opacity:1" fill="#232828" d="M 230.5,202.5 C 231.167,202.5 231.5,202.833 231.5,203.5C 231.663,205.857 231.497,208.19 231,210.5C 229.075,211.88 227.241,213.38 225.5,215C 219.73,215.202 214.063,215.368 208.5,215.5C 208.491,213.692 208.991,212.025 210,210.5C 216.544,213.254 223.044,213.088 229.5,210C 230.435,207.619 230.768,205.119 230.5,202.5 Z"/></g>
<g><path style="opacity:1" fill="#5d6567" d="M 200.5,178.5 C 201.873,178.343 203.207,178.51 204.5,179C 207.135,183.481 210.801,186.815 215.5,189C 221.18,189.445 226.846,189.945 232.5,190.5C 233.978,190.238 235.311,190.571 236.5,191.5C 239.32,194.96 241.653,198.627 243.5,202.5C 243.806,205.385 243.473,208.052 242.5,210.5C 242.66,208.801 242.494,207.134 242,205.5C 239.276,213.211 233.776,217.711 225.5,219C 219.843,219.499 214.176,219.666 208.5,219.5C 208.5,218.167 208.5,216.833 208.5,215.5C 214.063,215.368 219.73,215.202 225.5,215C 227.241,213.38 229.075,211.88 231,210.5C 231.497,208.19 231.663,205.857 231.5,203.5C 232.613,202.054 232.78,200.387 232,198.5C 225.855,192.509 218.355,189.342 209.5,189C 206.639,186.106 204.139,182.939 202,179.5C 201.51,180.793 201.343,182.127 201.5,183.5C 200.549,182.081 200.216,180.415 200.5,178.5 Z"/></g>
<g><path style="opacity:1" fill="#a5abb2" d="M 242.5,210.5 C 242.34,212.153 241.674,213.486 240.5,214.5C 240.631,213.761 240.464,213.094 240,212.5C 231.136,221.159 220.636,223.826 208.5,220.5C 208.5,220.167 208.5,219.833 208.5,219.5C 214.176,219.666 219.843,219.499 225.5,219C 233.776,217.711 239.276,213.211 242,205.5C 242.494,207.134 242.66,208.801 242.5,210.5 Z"/></g>
<g><path style="opacity:1" fill="#cdd0d4" d="M 240.5,214.5 C 232.942,222.52 223.609,225.687 212.5,224C 210.09,223.943 208.756,222.776 208.5,220.5C 220.636,223.826 231.136,221.159 240,212.5C 240.464,213.094 240.631,213.761 240.5,214.5 Z"/></g>
<g><path style="opacity:1" fill="#3b4344" d="M 63.5,214.5 C 65.3003,215.895 65.6336,217.561 64.5,219.5C 56.4045,221.464 49.2378,225.131 43,230.5C 42.6667,231.833 42.3333,233.167 42,234.5C 39.8733,236.114 38.3733,238.114 37.5,240.5C 37.1667,240.5 36.8333,240.5 36.5,240.5C 37.2795,235.532 39.6128,231.365 43.5,228C 48.772,223.53 54.772,220.363 61.5,218.5C 62.7051,217.423 63.3718,216.09 63.5,214.5 Z"/></g>
<g><path style="opacity:1" fill="#4e4e4e" d="M 471.5,211.5 C 473.054,215.567 473.72,219.9 473.5,224.5C 471.946,220.433 471.28,216.1 471.5,211.5 Z"/></g>
<g><path style="opacity:1" fill="#2f3637" d="M 181.5,203.5 C 182.924,205.515 183.59,207.848 183.5,210.5C 184.244,216.496 182.578,221.663 178.5,226C 174.5,226.667 170.5,226.667 166.5,226C 162.341,222.24 161.674,218.073 164.5,213.5C 164.126,216.972 165.126,219.972 167.5,222.5C 173.836,224.949 178.67,223.283 182,217.5C 182.564,212.806 182.397,208.14 181.5,203.5 Z"/></g>
<g><path style="opacity:1" fill="#888f95" d="M 97.5,221.5 C 99.8219,228.23 102.822,234.73 106.5,241C 112.167,241.333 117.833,241.667 123.5,242C 124.056,242.383 124.389,242.883 124.5,243.5C 120.248,243.713 116.082,244.38 112,245.5C 109.409,245.435 106.909,244.935 104.5,244C 102.11,239.28 99.9428,234.447 98,229.5C 97.5026,226.854 97.3359,224.187 97.5,221.5 Z"/></g>
<g><path style="opacity:1" fill="#c4c8cd" d="M 152.5,217.5 C 154.813,219.209 156.313,221.543 157,224.5C 166.244,233.907 175.411,233.74 184.5,224C 186.134,223.506 187.801,223.34 189.5,223.5C 193.14,224.273 196.807,224.94 200.5,225.5C 200.586,226.496 200.252,227.329 199.5,228C 196.144,229.182 192.81,229.349 189.5,228.5C 189,227.5 188.5,226.5 188,225.5C 180.457,235.347 170.957,237.847 159.5,233C 156.276,230.039 153.942,226.539 152.5,222.5C 152.5,220.833 152.5,219.167 152.5,217.5 Z"/></g>
<g><path style="opacity:1" fill="#7d8489" d="M 152.5,217.5 C 153.793,216.355 154.959,216.689 156,218.5C 157.123,221.249 158.623,223.749 160.5,226C 169.678,231.686 177.678,230.353 184.5,222C 185.333,221.833 186.167,221.667 187,221.5C 188.376,221.684 189.209,222.351 189.5,223.5C 187.801,223.34 186.134,223.506 184.5,224C 175.411,233.74 166.244,233.907 157,224.5C 156.313,221.543 154.813,219.209 152.5,217.5 Z"/></g>
<g><path style="opacity:1" fill="#292f2f" d="M 101.5,196.5 C 102.167,196.5 102.833,196.5 103.5,196.5C 102.537,200.79 102.704,205.123 104,209.5C 106.002,217.524 108.002,225.524 110,233.5C 111.126,234.944 112.626,235.61 114.5,235.5C 117.512,234.828 120.512,234.161 123.5,233.5C 123.674,235.861 124.007,238.194 124.5,240.5C 119.459,238.374 114.292,236.708 109,235.5C 107.145,229.069 105.145,222.736 103,216.5C 102.289,209.844 101.789,203.178 101.5,196.5 Z"/></g>
<g><path style="opacity:1" fill="#bdc1c7" d="M 129.5,208.5 C 131.931,217.917 133.931,227.584 135.5,237.5C 138.833,237.5 142.167,237.5 145.5,237.5C 145.5,238.5 145.5,239.5 145.5,240.5C 141.443,240.848 137.443,241.514 133.5,242.5C 130.942,228.819 128.275,215.152 125.5,201.5C 125.369,200.761 125.536,200.094 126,199.5C 127.027,202.662 128.194,205.662 129.5,208.5 Z"/></g>
<g><path style="opacity:1" fill="#676f72" d="M 84.5,249.5 C 85.3382,249.842 85.6716,250.508 85.5,251.5C 84.2921,250.766 82.9587,250.433 81.5,250.5C 78.022,247.875 74.022,247.042 69.5,248C 62.7108,255.617 55.2108,256.45 47,250.5C 45.9231,246.258 46.7564,242.591 49.5,239.5C 47.4939,248.316 50.8273,252.15 59.5,251C 67.4382,248.914 70.4382,243.747 68.5,235.5C 69.7079,236.234 71.0413,236.567 72.5,236.5C 72.6646,233.482 72.498,230.482 72,227.5C 70.4412,225.783 69.6079,223.783 69.5,221.5C 66.4816,221.335 63.4816,221.502 60.5,222C 57.326,223.725 53.9927,225.058 50.5,226C 47.0092,229.638 44.3426,233.805 42.5,238.5C 41.1502,239.95 39.4835,240.617 37.5,240.5C 38.3733,238.114 39.8733,236.114 42,234.5C 42.3333,233.167 42.6667,231.833 43,230.5C 49.2378,225.131 56.4045,221.464 64.5,219.5C 65.6336,217.561 65.3003,215.895 63.5,214.5C 63.5,214.167 63.5,213.833 63.5,213.5C 64.6491,213.209 65.3158,212.376 65.5,211C 65.3333,210.167 65.1667,209.333 65,208.5C 61.8042,205.747 58.1376,204.08 54,203.5C 46.8657,204.728 40.0324,206.394 33.5,208.5C 32.596,207.791 32.2627,206.791 32.5,205.5C 39.5367,204.045 46.5367,202.378 53.5,200.5C 56.6723,200.449 59.6723,201.116 62.5,202.5C 67.473,208.626 71.8063,215.126 75.5,222C 77.4676,230.899 79.6343,239.732 82,248.5C 82.6708,249.252 83.5041,249.586 84.5,249.5 Z"/></g>
<g><path style="opacity:1" fill="#0b0c0c" d="M 68.5,234.5 C 68.5,234.833 68.5,235.167 68.5,235.5C 70.4382,243.747 67.4382,248.914 59.5,251C 50.8273,252.15 47.4939,248.316 49.5,239.5C 49.5,238.833 49.5,238.167 49.5,237.5C 53.5105,230.817 59.5105,227.151 67.5,226.5C 67.5751,229.206 67.9084,231.873 68.5,234.5 Z"/></g>
<g><path style="opacity:1" fill="#c5c9ce" d="M 68.5,234.5 C 67.9084,231.873 67.5751,229.206 67.5,226.5C 59.5105,227.151 53.5105,230.817 49.5,237.5C 47.9907,238.859 47.324,238.359 47.5,236C 51.4473,225.586 58.6139,222.086 69,225.5C 69.4361,227.847 69.9361,230.181 70.5,232.5C 70.2528,233.713 69.5862,234.38 68.5,234.5 Z"/></g>
<g><path style="opacity:1" fill="#70787c" d="M 129.5,204.5 C 135.68,212.403 139.347,221.569 140.5,232C 140.684,233.376 141.351,234.209 142.5,234.5C 143.209,235.404 144.209,235.737 145.5,235.5C 146.833,237.167 146.833,238.833 145.5,240.5C 145.5,239.5 145.5,238.5 145.5,237.5C 142.167,237.5 138.833,237.5 135.5,237.5C 133.931,227.584 131.931,217.917 129.5,208.5C 129.5,207.167 129.5,205.833 129.5,204.5 Z"/></g>
<g><path style="opacity:1" fill="#7a8186" d="M 68.5,235.5 C 68.5,235.167 68.5,234.833 68.5,234.5C 69.5862,234.38 70.2528,233.713 70.5,232.5C 69.9361,230.181 69.4361,227.847 69,225.5C 58.6139,222.086 51.4473,225.586 47.5,236C 47.324,238.359 47.9907,238.859 49.5,237.5C 49.5,238.167 49.5,238.833 49.5,239.5C 46.7564,242.591 45.9231,246.258 47,250.5C 55.2108,256.45 62.7108,255.617 69.5,248C 74.022,247.042 78.022,247.875 81.5,250.5C 78.4228,250.653 75.5895,249.986 73,248.5C 69.599,250.219 66.4324,252.386 63.5,255C 55.3855,258.359 48.5521,256.859 43,250.5C 41.8822,248.235 41.0488,245.901 40.5,243.5C 39.5,243.5 38.5,243.5 37.5,243.5C 37.5,245.167 37.5,246.833 37.5,248.5C 36.5269,246.052 36.1936,243.385 36.5,240.5C 36.8333,240.5 37.1667,240.5 37.5,240.5C 39.4835,240.617 41.1502,239.95 42.5,238.5C 44.3426,233.805 47.0092,229.638 50.5,226C 53.9927,225.058 57.326,223.725 60.5,222C 63.4816,221.502 66.4816,221.335 69.5,221.5C 69.6079,223.783 70.4412,225.783 72,227.5C 72.498,230.482 72.6646,233.482 72.5,236.5C 71.0413,236.567 69.7079,236.234 68.5,235.5 Z"/></g>
<g><path style="opacity:1" fill="#3e3e3e" d="M 329.5,186.5 C 330.056,198.449 332.223,210.116 336,221.5C 340.036,231.071 344.203,240.571 348.5,250C 348.215,251.89 347.215,253.223 345.5,254C 341.94,255.237 338.273,255.737 334.5,255.5C 332.712,239.684 329.046,224.351 323.5,209.5C 326.308,209.031 328.642,207.697 330.5,205.5C 328.639,199.09 328.305,192.757 329.5,186.5 Z"/></g>
<g><path style="opacity:1" fill="#272727" d="M 347.5,244.5 C 355.99,243.343 364.657,243.176 373.5,244C 377.06,244.873 378.56,247.04 378,250.5C 373.774,256.533 368.274,261.033 361.5,264C 346.994,269.712 331.994,272.712 316.5,273C 309.334,271.805 307.834,268.305 312,262.5C 317.689,256.41 324.189,251.41 331.5,247.5C 332.208,250.366 332.875,253.2 333.5,256C 337.956,256.867 342.289,256.534 346.5,255C 351.406,252.044 351.74,248.544 347.5,244.5 Z"/></g>
<g><path style="opacity:1" fill="#585858" d="M 473.5,224.5 C 474.937,233.291 475.604,242.291 475.5,251.5C 475.499,257.011 475.166,262.344 474.5,267.5C 474.397,253.16 474.064,238.827 473.5,224.5 Z"/></g>
<g><path style="opacity:1" fill="#c3c7cc" d="M 81.5,250.5 C 82.9587,250.433 84.2921,250.766 85.5,251.5C 86.7514,252.472 86.418,253.139 84.5,253.5C 81.2241,255.162 77.8907,255.496 74.5,254.5C 74,253.5 73.5,252.5 73,251.5C 64.3543,262.408 54.1876,264.242 42.5,257C 40.415,254.318 38.7483,251.484 37.5,248.5C 37.5,246.833 37.5,245.167 37.5,243.5C 38.5,243.5 39.5,243.5 40.5,243.5C 41.0488,245.901 41.8822,248.235 43,250.5C 48.5521,256.859 55.3855,258.359 63.5,255C 66.4324,252.386 69.599,250.219 73,248.5C 75.5895,249.986 78.4228,250.653 81.5,250.5 Z"/></g>
<g><path style="opacity:1" fill="#454d4f" d="M 399.5,280.5 C 398.504,280.586 397.671,280.252 397,279.5C 395.936,275.705 393.436,274.539 389.5,276C 386.579,279.109 383.579,281.943 380.5,284.5C 378.431,284.215 377.098,283.048 376.5,281C 373.854,280.503 371.187,280.336 368.5,280.5C 371.64,279.359 374.973,279.192 378.5,280C 378.998,281.158 379.831,281.991 381,282.5C 383.434,280.066 385.934,277.566 388.5,275C 391.167,274.333 393.833,274.333 396.5,275C 397.527,276.866 398.527,278.7 399.5,280.5 Z"/></g>
<g><path style="opacity:1" fill="#777f83" d="M 399.5,280.5 C 401.186,283.537 400.186,284.87 396.5,284.5C 397.091,283.849 397.757,283.182 398.5,282.5C 398.043,281.702 397.376,281.369 396.5,281.5C 391.383,279.709 387.383,281.209 384.5,286C 382.167,286.667 379.833,286.667 377.5,286C 375.622,282.394 372.622,280.894 368.5,281.5C 368.5,281.167 368.5,280.833 368.5,280.5C 371.187,280.336 373.854,280.503 376.5,281C 377.098,283.048 378.431,284.215 380.5,284.5C 383.579,281.943 386.579,279.109 389.5,276C 393.436,274.539 395.936,275.705 397,279.5C 397.671,280.252 398.504,280.586 399.5,280.5 Z"/></g>
<g><path style="opacity:1" fill="#232828" d="M 365.5,311.5 C 364.016,307.868 362.016,304.534 359.5,301.5C 357.577,298.397 355.41,295.397 353,292.5C 352.329,291.748 351.496,291.414 350.5,291.5C 348.88,289.016 346.547,287.516 343.5,287C 338.833,286.333 334.167,286.333 329.5,287C 326.392,289.37 323.059,291.37 319.5,293C 316.79,295.628 314.456,298.461 312.5,301.5C 318.211,288.473 328.211,282.973 342.5,285C 355.689,289.024 363.356,297.857 365.5,311.5 Z"/></g>
<g><path style="opacity:1" fill="#888f95" d="M 350.5,291.5 C 351.496,291.414 352.329,291.748 353,292.5C 355.41,295.397 357.577,298.397 359.5,301.5C 361.535,306.264 363.035,311.264 364,316.5C 364.671,317.252 365.504,317.586 366.5,317.5C 366.817,321.702 366.483,325.702 365.5,329.5C 366.268,324.779 365.101,320.779 362,317.5C 361.483,314.08 360.65,310.747 359.5,307.5C 356.028,302.528 352.028,298.028 347.5,294C 345.655,292.872 343.655,292.372 341.5,292.5C 332.712,290.868 325.712,293.535 320.5,300.5C 317.768,304.945 314.768,309.278 311.5,313.5C 310.52,316.086 310.187,318.753 310.5,321.5C 309.523,318.713 309.19,315.713 309.5,312.5C 310.29,311.391 310.79,310.058 311,308.5C 314.242,306.356 316.242,303.356 317,299.5C 326.273,289.4 337.44,286.733 350.5,291.5 Z"/></g>
<g><path style="opacity:1" fill="#cdd0d6" d="M 396.5,281.5 C 397.376,281.369 398.043,281.702 398.5,282.5C 397.757,283.182 397.091,283.849 396.5,284.5C 391.701,285.296 388.367,287.963 386.5,292.5C 385.32,290.144 385.654,287.811 387.5,285.5C 388.981,284.52 390.315,283.353 391.5,282C 393.134,281.506 394.801,281.34 396.5,281.5 Z"/></g>
<g><path style="opacity:1" fill="#5d6568" d="M 350.5,291.5 C 337.44,286.733 326.273,289.4 317,299.5C 316.242,303.356 314.242,306.356 311,308.5C 310.79,310.058 310.29,311.391 309.5,312.5C 309.517,308.466 310.517,304.799 312.5,301.5C 314.456,298.461 316.79,295.628 319.5,293C 323.059,291.37 326.392,289.37 329.5,287C 334.167,286.333 338.833,286.333 343.5,287C 346.547,287.516 348.88,289.016 350.5,291.5 Z"/></g>
<g><path style="opacity:1" fill="#020202" d="M 351.5,310.5 C 352.487,316.805 352.653,323.138 352,329.5C 347.955,338.074 341.455,340.574 332.5,337C 324.801,328.728 321.801,318.894 323.5,307.5C 325.872,297.986 331.872,294.486 341.5,297C 346.901,299.968 350.234,304.468 351.5,310.5 Z"/></g>
<g><path style="opacity:1" fill="#2a3030" d="M 296.5,304.5 C 295.802,302.333 294.469,300.5 292.5,299C 289.183,298.502 285.85,298.335 282.5,298.5C 282.5,299.5 282.5,300.5 282.5,301.5C 281.199,300.116 281.199,298.616 282.5,297C 286.495,295.639 290.495,295.473 294.5,296.5C 295.785,299.021 296.452,301.687 296.5,304.5 Z"/></g>
<g><path style="opacity:1" fill="#2f3535" d="M 140.5,304.5 C 136.298,304.183 132.298,304.517 128.5,305.5C 128.5,306.833 128.5,308.167 128.5,309.5C 127.532,307.393 127.198,305.059 127.5,302.5C 131.913,302.313 136.246,301.646 140.5,300.5C 140.5,301.833 140.5,303.167 140.5,304.5 Z"/></g>
<g><path style="opacity:1" fill="#596063" d="M 169.5,312.5 C 169.5,310.833 169.5,309.167 169.5,307.5C 166.972,306.977 164.639,305.977 162.5,304.5C 159.823,305.867 157.49,307.534 155.5,309.5C 155.5,310.167 155.5,310.833 155.5,311.5C 153.609,307.741 154.609,304.908 158.5,303C 162.312,301.793 165.312,302.793 167.5,306C 168.448,306.483 169.448,306.649 170.5,306.5C 170.795,308.735 170.461,310.735 169.5,312.5 Z"/></g>
<g><path style="opacity:1" fill="#c8ccd1" d="M 341.5,292.5 C 344.688,295.03 347.855,297.696 351,300.5C 351.714,303.595 352.714,306.595 354,309.5C 354.801,312.367 354.634,315.034 353.5,317.5C 353.59,314.848 352.924,312.515 351.5,310.5C 350.234,304.468 346.901,299.968 341.5,297C 331.872,294.486 325.872,297.986 323.5,307.5C 322.566,308.568 322.232,309.901 322.5,311.5C 322.167,311.5 321.833,311.5 321.5,311.5C 320.007,310.688 319.34,309.355 319.5,307.5C 319.997,305.182 320.33,302.848 320.5,300.5C 325.712,293.535 332.712,290.868 341.5,292.5 Z"/></g>
<g><path style="opacity:1" fill="#525a5c" d="M 359.5,301.5 C 362.016,304.534 364.016,307.868 365.5,311.5C 366.15,313.435 366.483,315.435 366.5,317.5C 365.504,317.586 364.671,317.252 364,316.5C 363.035,311.264 361.535,306.264 359.5,301.5 Z"/></g>
<g><path style="opacity:1" fill="#9aa1a8" d="M 128.5,305.5 C 131.518,305.335 134.518,305.502 137.5,306C 138,306.5 138.5,307 139,307.5C 141.002,318.499 142.835,329.499 144.5,340.5C 141.804,328.758 137.137,317.758 130.5,307.5C 129.702,307.957 129.369,308.624 129.5,309.5C 129.167,309.5 128.833,309.5 128.5,309.5C 128.5,308.167 128.5,306.833 128.5,305.5 Z"/></g>
<g><path style="opacity:1" fill="#a3aab1" d="M 169.5,312.5 C 169.5,313.167 169.167,313.5 168.5,313.5C 168.631,312.624 168.298,311.957 167.5,311.5C 166.061,312.063 164.561,312.397 163,312.5C 160.386,311.702 157.886,310.702 155.5,309.5C 157.49,307.534 159.823,305.867 162.5,304.5C 164.639,305.977 166.972,306.977 169.5,307.5C 169.5,309.167 169.5,310.833 169.5,312.5 Z"/></g>
<g><path style="opacity:1" fill="#4e5557" d="M 296.5,304.5 C 300.797,319.94 304.13,335.607 306.5,351.5C 304.249,345.205 302.415,338.538 301,331.5C 300.333,330.833 299.667,330.167 299,329.5C 296.742,320.734 294.909,311.9 293.5,303C 293.095,302.055 292.428,301.388 291.5,301C 288.633,300.199 285.966,300.366 283.5,301.5C 283.833,304.167 284.167,306.833 284.5,309.5C 282.96,307.162 282.294,304.495 282.5,301.5C 282.5,300.5 282.5,299.5 282.5,298.5C 285.85,298.335 289.183,298.502 292.5,299C 294.469,300.5 295.802,302.333 296.5,304.5 Z"/></g>
<g><path style="opacity:1" fill="#9ba2a9" d="M 396.5,281.5 C 394.801,281.34 393.134,281.506 391.5,282C 390.315,283.353 388.981,284.52 387.5,285.5C 385.654,287.811 385.32,290.144 386.5,292.5C 386.5,294.833 386.5,297.167 386.5,299.5C 385.883,299.611 385.383,299.944 385,300.5C 384.622,311.14 386.289,321.473 390,331.5C 391.045,332.373 391.878,333.373 392.5,334.5C 390.61,334.703 389.11,334.037 388,332.5C 384.96,324.08 381.626,315.747 378,307.5C 376.385,299.215 374.552,291.049 372.5,283C 371.251,282.26 370.251,282.427 369.5,283.5C 368.662,283.158 368.328,282.492 368.5,281.5C 372.622,280.894 375.622,282.394 377.5,286C 379.833,286.667 382.167,286.667 384.5,286C 387.383,281.209 391.383,279.709 396.5,281.5 Z"/></g>
<g><path style="opacity:1" fill="#d7d9de" d="M 155.5,309.5 C 157.886,310.702 160.386,311.702 163,312.5C 164.561,312.397 166.061,312.063 167.5,311.5C 168.298,311.957 168.631,312.624 168.5,313.5C 165.335,316.803 161.668,317.303 157.5,315C 156.695,313.887 156.028,312.721 155.5,311.5C 155.5,310.833 155.5,310.167 155.5,309.5 Z"/></g>
<g><path style="opacity:1" fill="#acb2b9" d="M 341.5,292.5 C 343.655,292.372 345.655,292.872 347.5,294C 352.028,298.028 356.028,302.528 359.5,307.5C 360.65,310.747 361.483,314.08 362,317.5C 365.101,320.779 366.268,324.779 365.5,329.5C 365.204,331.403 364.537,333.07 363.5,334.5C 363.838,331.989 363.838,329.655 363.5,327.5C 355.63,344.944 342.963,350.11 325.5,343C 319.883,336.941 315.383,330.108 312,322.5C 311.517,323.448 311.351,324.448 311.5,325.5C 310.566,324.432 310.232,323.099 310.5,321.5C 310.187,318.753 310.52,316.086 311.5,313.5C 314.768,309.278 317.768,304.945 320.5,300.5C 320.33,302.848 319.997,305.182 319.5,307.5C 319.34,309.355 320.007,310.688 321.5,311.5C 318.327,322.5 320.994,332 329.5,340C 346.633,347.201 355.466,341.701 356,323.5C 355.292,322.619 354.458,321.953 353.5,321.5C 353.5,320.167 353.5,318.833 353.5,317.5C 354.634,315.034 354.801,312.367 354,309.5C 352.714,306.595 351.714,303.595 351,300.5C 347.855,297.696 344.688,295.03 341.5,292.5 Z"/></g>
<g><path style="opacity:1" fill="#737b80" d="M 321.5,311.5 C 321.833,311.5 322.167,311.5 322.5,311.5C 321.059,317.226 321.226,322.892 323,328.5C 326.103,332.607 329.603,336.44 333.5,340C 349.393,343.603 356.06,337.437 353.5,321.5C 354.458,321.953 355.292,322.619 356,323.5C 355.466,341.701 346.633,347.201 329.5,340C 320.994,332 318.327,322.5 321.5,311.5 Z"/></g>
<g><path style="opacity:1" fill="#343a3b" d="M 141.5,308.5 C 144.082,315.506 145.749,322.84 146.5,330.5C 144.447,326.137 142.947,321.47 142,316.5C 141.503,313.854 141.336,311.187 141.5,308.5 Z"/></g>
<g><path style="opacity:1" fill="#5e6669" d="M 386.5,299.5 C 386.264,302.609 386.597,305.609 387.5,308.5C 387.883,316.368 389.383,324.034 392,331.5C 392.383,332.056 392.883,332.389 393.5,332.5C 393.5,333.167 393.5,333.833 393.5,334.5C 393.167,334.5 392.833,334.5 392.5,334.5C 391.878,333.373 391.045,332.373 390,331.5C 386.289,321.473 384.622,311.14 385,300.5C 385.383,299.944 385.883,299.611 386.5,299.5 Z"/></g>
<g><path style="opacity:1" fill="#2d3334" d="M 235.5,314.5 C 232.844,312.594 229.844,312.094 226.5,313C 224.963,314.11 224.297,315.61 224.5,317.5C 213.285,313.197 203.451,315.197 195,323.5C 192.241,327.407 189.741,331.407 187.5,335.5C 191.937,316.175 203.437,309.508 222,315.5C 222.202,313.744 222.702,312.078 223.5,310.5C 227.168,309.159 230.835,308.826 234.5,309.5C 235.309,311.071 235.643,312.738 235.5,314.5 Z"/></g>
<g><path style="opacity:1" fill="#bfc3c9" d="M 392.5,334.5 C 392.833,334.5 393.167,334.5 393.5,334.5C 393.5,335.5 393.5,336.5 393.5,337.5C 389.476,338.038 385.476,338.705 381.5,339.5C 381.59,336.848 380.924,334.515 379.5,332.5C 376.49,316.107 373.157,299.774 369.5,283.5C 370.251,282.427 371.251,282.26 372.5,283C 374.552,291.049 376.385,299.215 378,307.5C 381.626,315.747 384.96,324.08 388,332.5C 389.11,334.037 390.61,334.703 392.5,334.5 Z"/></g>
<g><path style="opacity:1" fill="#323839" d="M 387.5,308.5 C 390.102,316.24 392.102,324.24 393.5,332.5C 392.883,332.389 392.383,332.056 392,331.5C 389.383,324.034 387.883,316.368 387.5,308.5 Z"/></g>
<g><path style="opacity:1" fill="#040404" d="M 229.5,347.5 C 229.5,348.167 229.5,348.833 229.5,349.5C 229.632,352.57 229.299,355.57 228.5,358.5C 224.131,365.232 218.131,367.065 210.5,364C 208.609,362.558 206.609,361.391 204.5,360.5C 202.213,353.348 200.879,346.015 200.5,338.5C 200.5,337.167 200.5,335.833 200.5,334.5C 206.805,321.605 214.971,320.272 225,330.5C 227.575,335.876 229.075,341.542 229.5,347.5 Z"/></g>
<g><path style="opacity:1" fill="#373c3d" d="M 178.5,350.5 C 177.857,348.924 176.857,347.59 175.5,346.5C 174.294,339.801 172.96,333.135 171.5,326.5C 167.351,325.92 163.684,326.586 160.5,328.5C 160.328,329.492 160.662,330.158 161.5,330.5C 161.5,331.833 161.5,333.167 161.5,334.5C 159.825,331.493 159.159,328.16 159.5,324.5C 163.833,323.833 168.167,323.167 172.5,322.5C 174.502,331.84 176.502,341.173 178.5,350.5 Z"/></g>
<g><path style="opacity:1" fill="#8d949b" d="M 283.5,301.5 C 285.966,300.366 288.633,300.199 291.5,301C 292.428,301.388 293.095,302.055 293.5,303C 294.909,311.9 296.742,320.734 299,329.5C 299.667,330.167 300.333,330.833 301,331.5C 302.415,338.538 304.249,345.205 306.5,351.5C 307.906,351.973 308.573,352.973 308.5,354.5C 306.784,354.371 305.117,354.038 303.5,353.5C 299.815,342.265 296.815,330.765 294.5,319C 291.945,314.004 289.778,308.837 288,303.5C 286.67,302.418 285.17,301.751 283.5,301.5 Z"/></g>
<g><path style="opacity:1" fill="#b0b6bd" d="M 240.5,354.5 C 243.5,365.833 246.5,377.167 249.5,388.5C 250.906,388.973 251.573,389.973 251.5,391.5C 249.629,391.141 248.129,390.141 247,388.5C 245.68,380.541 243.18,373.041 239.5,366C 237.61,364.888 235.61,364.054 233.5,363.5C 230.857,365.13 228.191,366.797 225.5,368.5C 220.867,369.553 216.201,369.719 211.5,369C 210.429,368.148 209.429,367.315 208.5,366.5C 213.13,367.229 217.797,367.563 222.5,367.5C 223.922,367.291 225.255,366.791 226.5,366C 228,363.833 229.5,361.667 231,359.5C 231.837,355.852 231.337,352.519 229.5,349.5C 229.5,348.833 229.5,348.167 229.5,347.5C 231.124,349.137 232.124,348.803 232.5,346.5C 231.797,337.113 228.464,328.946 222.5,322C 213.964,318.894 206.464,320.394 200,326.5C 198.723,330.097 198.39,333.764 199,337.5C 199.232,336.263 199.732,335.263 200.5,334.5C 200.5,335.833 200.5,337.167 200.5,338.5C 199.662,338.842 199.328,339.508 199.5,340.5C 198.542,340.953 197.708,341.619 197,342.5C 196.503,346.524 196.669,350.524 197.5,354.5C 195.602,350.764 192.769,347.764 189,345.5C 188.517,346.448 188.351,347.448 188.5,348.5C 187.527,346.052 187.194,343.385 187.5,340.5C 189.017,340.489 190.184,339.823 191,338.5C 193.81,334.547 195.81,330.213 197,325.5C 200.639,320.694 205.473,318.361 211.5,318.5C 216.157,319.296 220.824,319.463 225.5,319C 226.973,318.29 227.64,317.124 227.5,315.5C 228.822,315.33 229.989,315.663 231,316.5C 232.261,327.049 234.261,337.383 237,347.5C 237.728,350.187 238.895,352.52 240.5,354.5 Z"/></g>
<g><path style="opacity:1" fill="#cdd0d5" d="M 229.5,347.5 C 229.075,341.542 227.575,335.876 225,330.5C 214.971,320.272 206.805,321.605 200.5,334.5C 199.732,335.263 199.232,336.263 199,337.5C 198.39,333.764 198.723,330.097 200,326.5C 206.464,320.394 213.964,318.894 222.5,322C 228.464,328.946 231.797,337.113 232.5,346.5C 232.124,348.803 231.124,349.137 229.5,347.5 Z"/></g>
<g><path style="opacity:1" fill="#343a3b" d="M 323.5,307.5 C 321.801,318.894 324.801,328.728 332.5,337C 341.455,340.574 347.955,338.074 352,329.5C 352.653,323.138 352.487,316.805 351.5,310.5C 352.924,312.515 353.59,314.848 353.5,317.5C 353.5,318.833 353.5,320.167 353.5,321.5C 356.06,337.437 349.393,343.603 333.5,340C 329.603,336.44 326.103,332.607 323,328.5C 321.226,322.892 321.059,317.226 322.5,311.5C 322.232,309.901 322.566,308.568 323.5,307.5 Z"/></g>
<g><path style="opacity:1" fill="#b3b8bf" d="M 144.5,340.5 C 145.781,347.009 147.781,353.343 150.5,359.5C 151.927,361.148 152.76,363.148 153,365.5C 154.298,371.772 155.298,378.106 156,384.5C 156.816,385.823 157.983,386.489 159.5,386.5C 159.5,387.167 159.5,387.833 159.5,388.5C 156.885,387.55 154.885,385.883 153.5,383.5C 152.78,378.863 152.28,374.197 152,369.5C 148.94,359.81 144.94,350.477 140,341.5C 139.215,343.249 138.382,344.916 137.5,346.5C 134.526,334.36 131.86,322.027 129.5,309.5C 129.369,308.624 129.702,307.957 130.5,307.5C 137.137,317.758 141.804,328.758 144.5,340.5 Z"/></g>
<g><path style="opacity:1" fill="#6d7579" d="M 236.5,331.5 C 239.889,341.909 242.722,352.575 245,363.5C 247.082,371.74 248.582,380.073 249.5,388.5C 246.5,377.167 243.5,365.833 240.5,354.5C 239.007,346.862 237.674,339.196 236.5,331.5 Z"/></g>
<g><path style="opacity:1" fill="#42494b" d="M 235.5,314.5 C 241.367,340.106 247.033,365.772 252.5,391.5C 252.167,391.5 251.833,391.5 251.5,391.5C 251.573,389.973 250.906,388.973 249.5,388.5C 248.582,380.073 247.082,371.74 245,363.5C 242.722,352.575 239.889,341.909 236.5,331.5C 234.435,326.097 232.935,320.431 232,314.5C 228.471,312.853 225.971,313.853 224.5,317.5C 224.297,315.61 224.963,314.11 226.5,313C 229.844,312.094 232.844,312.594 235.5,314.5 Z"/></g>
<g><path style="opacity:1" fill="#656d71" d="M 128.5,305.5 C 132.298,304.517 136.298,304.183 140.5,304.5C 141.434,305.568 141.768,306.901 141.5,308.5C 141.336,311.187 141.503,313.854 142,316.5C 142.947,321.47 144.447,326.137 146.5,330.5C 147.091,340.305 148.425,349.972 150.5,359.5C 147.781,353.343 145.781,347.009 144.5,340.5C 142.835,329.499 141.002,318.499 139,307.5C 138.5,307 138,306.5 137.5,306C 134.518,305.502 131.518,305.335 128.5,305.5 Z"/></g>
<g><path style="opacity:1" fill="#8f969c" d="M 236.5,331.5 C 237.674,339.196 239.007,346.862 240.5,354.5C 238.895,352.52 237.728,350.187 237,347.5C 234.261,337.383 232.261,327.049 231,316.5C 229.989,315.663 228.822,315.33 227.5,315.5C 227.64,317.124 226.973,318.29 225.5,319C 220.824,319.463 216.157,319.296 211.5,318.5C 205.473,318.361 200.639,320.694 197,325.5C 195.81,330.213 193.81,334.547 191,338.5C 190.184,339.823 189.017,340.489 187.5,340.5C 187.5,338.833 187.5,337.167 187.5,335.5C 189.741,331.407 192.241,327.407 195,323.5C 203.451,315.197 213.285,313.197 224.5,317.5C 225.971,313.853 228.471,312.853 232,314.5C 232.935,320.431 234.435,326.097 236.5,331.5 Z"/></g>
<g><path style="opacity:1" fill="#515254" d="M 379.5,332.5 C 380.924,334.515 381.59,336.848 381.5,339.5C 380.076,337.485 379.41,335.152 379.5,332.5 Z"/></g>
<g><path style="opacity:1" fill="#767e83" d="M 175.5,346.5 C 175.5,347.833 175.5,349.167 175.5,350.5C 173.329,343.306 171.329,335.972 169.5,328.5C 166.5,328.5 163.5,328.5 160.5,328.5C 163.684,326.586 167.351,325.92 171.5,326.5C 172.96,333.135 174.294,339.801 175.5,346.5 Z"/></g>
<g><path style="opacity:1" fill="#3e4547" d="M 146.5,330.5 C 151.12,348.987 155.453,367.654 159.5,386.5C 157.983,386.489 156.816,385.823 156,384.5C 155.298,378.106 154.298,371.772 153,365.5C 152.76,363.148 151.927,361.148 150.5,359.5C 148.425,349.972 147.091,340.305 146.5,330.5 Z"/></g>
<g><path style="opacity:1" fill="#b0b6bd" d="M 283.5,301.5 C 285.17,301.751 286.67,302.418 288,303.5C 289.778,308.837 291.945,314.004 294.5,319C 296.815,330.765 299.815,342.265 303.5,353.5C 300.512,352.562 297.678,351.229 295,349.5C 294.167,349.667 293.333,349.833 292.5,350C 285.265,358.06 276.599,359.726 266.5,355C 262.908,352.331 260.408,348.831 259,344.5C 256.464,333.248 253.964,321.914 251.5,310.5C 249.775,308.908 248.775,309.242 248.5,311.5C 247.662,311.158 247.328,310.492 247.5,309.5C 248.694,308.223 250.36,307.556 252.5,307.5C 254.64,307.556 256.306,308.223 257.5,309.5C 259.727,320.739 262.394,331.739 265.5,342.5C 265.387,345.049 266.054,347.382 267.5,349.5C 269.5,350.833 271.167,352.5 272.5,354.5C 274.333,354.833 276.167,355.167 278,355.5C 280.295,355.453 282.129,354.787 283.5,353.5C 284.167,353.5 284.833,353.5 285.5,353.5C 292.751,349.951 294.418,344.618 290.5,337.5C 290.706,334.505 290.04,331.838 288.5,329.5C 287.597,322.747 286.263,316.08 284.5,309.5C 284.167,306.833 283.833,304.167 283.5,301.5 Z"/></g>
<g><path style="opacity:1" fill="#686f73" d="M 290.5,337.5 C 294.418,344.618 292.751,349.951 285.5,353.5C 289.893,349.133 291.559,343.8 290.5,337.5 Z"/></g>
<g><path style="opacity:1" fill="#666e71" d="M 257.5,309.5 C 262.607,319.732 265.273,330.732 265.5,342.5C 262.394,331.739 259.727,320.739 257.5,309.5 Z"/></g>
<g><path style="opacity:1" fill="#d5d7db" d="M 363.5,334.5 C 357.028,346.238 347.028,351.404 333.5,350C 321.233,346.319 313.899,338.153 311.5,325.5C 311.351,324.448 311.517,323.448 312,322.5C 315.383,330.108 319.883,336.941 325.5,343C 342.963,350.11 355.63,344.944 363.5,327.5C 363.838,329.655 363.838,331.989 363.5,334.5 Z"/></g>
<g><path style="opacity:1" fill="#6e767a" d="M 265.5,342.5 C 267.297,346.56 269.963,350.06 273.5,353C 276.817,353.498 280.15,353.665 283.5,353.5C 282.129,354.787 280.295,355.453 278,355.5C 276.167,355.167 274.333,354.833 272.5,354.5C 271.167,352.5 269.5,350.833 267.5,349.5C 266.054,347.382 265.387,345.049 265.5,342.5 Z"/></g>
<g><path style="opacity:1" fill="#575e61" d="M 175.5,346.5 C 176.857,347.59 177.857,348.924 178.5,350.5C 180.698,360.818 183.031,371.152 185.5,381.5C 185.457,382.416 185.124,383.083 184.5,383.5C 184.5,382.833 184.5,382.167 184.5,381.5C 182.856,380.684 181.69,379.35 181,377.5C 179.165,368.488 177.332,359.488 175.5,350.5C 175.5,349.167 175.5,347.833 175.5,346.5 Z"/></g>
<g><path style="opacity:1" fill="#333a3a" d="M 288.5,329.5 C 290.04,331.838 290.706,334.505 290.5,337.5C 291.559,343.8 289.893,349.133 285.5,353.5C 284.833,353.5 284.167,353.5 283.5,353.5C 280.15,353.665 276.817,353.498 273.5,353C 269.963,350.06 267.297,346.56 265.5,342.5C 265.273,330.732 262.607,319.732 257.5,309.5C 256.306,308.223 254.64,307.556 252.5,307.5C 250.36,307.556 248.694,308.223 247.5,309.5C 246.199,308.116 246.199,306.616 247.5,305C 251.272,304.594 254.939,303.761 258.5,302.5C 259.086,302.709 259.586,303.043 260,303.5C 262.333,314.5 264.667,325.5 267,336.5C 268.251,341.258 270.085,345.758 272.5,350C 279.173,352.775 284.673,351.275 289,345.5C 289.609,340.139 289.442,334.805 288.5,329.5 Z"/></g>
<g><path style="opacity:1" fill="#3d4446" d="M 200.5,338.5 C 200.879,346.015 202.213,353.348 204.5,360.5C 198.794,354.961 197.127,348.294 199.5,340.5C 199.328,339.508 199.662,338.842 200.5,338.5 Z"/></g>
<g><path style="opacity:1" fill="#848b91" d="M 199.5,340.5 C 197.127,348.294 198.794,354.961 204.5,360.5C 205.415,362.754 206.748,364.754 208.5,366.5C 206.139,365.565 203.972,364.232 202,362.5C 200.603,359.646 199.103,356.98 197.5,354.5C 196.669,350.524 196.503,346.524 197,342.5C 197.708,341.619 198.542,340.953 199.5,340.5 Z"/></g>
<g><path style="opacity:1" fill="#50575a" d="M 229.5,349.5 C 231.337,352.519 231.837,355.852 231,359.5C 229.5,361.667 228,363.833 226.5,366C 225.255,366.791 223.922,367.291 222.5,367.5C 225.74,365.361 227.74,362.361 228.5,358.5C 229.299,355.57 229.632,352.57 229.5,349.5 Z"/></g>
<g><path style="opacity:1" fill="#c6cad0" d="M 184.5,381.5 C 184.5,382.167 184.5,382.833 184.5,383.5C 180.614,384.49 176.614,385.49 172.5,386.5C 172.5,385.5 172.5,384.5 172.5,383.5C 171.66,379.015 170.66,374.681 169.5,370.5C 167.434,358.249 164.767,346.249 161.5,334.5C 161.5,333.167 161.5,331.833 161.5,330.5C 162.189,329.226 163.023,329.226 164,330.5C 166.984,336.824 169.984,343.158 173,349.5C 175.203,359.514 177.537,369.514 180,379.5C 181.049,381.107 182.549,381.773 184.5,381.5 Z"/></g>
<g><path style="opacity:1" fill="#515255" d="M 137.5,350.5 C 138.924,352.515 139.59,354.848 139.5,357.5C 138.076,355.485 137.41,353.152 137.5,350.5 Z"/></g>
<g><path style="opacity:1" fill="#a8aeb6" d="M 160.5,328.5 C 163.5,328.5 166.5,328.5 169.5,328.5C 171.329,335.972 173.329,343.306 175.5,350.5C 177.332,359.488 179.165,368.488 181,377.5C 181.69,379.35 182.856,380.684 184.5,381.5C 182.549,381.773 181.049,381.107 180,379.5C 177.537,369.514 175.203,359.514 173,349.5C 169.984,343.158 166.984,336.824 164,330.5C 163.023,329.226 162.189,329.226 161.5,330.5C 160.662,330.158 160.328,329.492 160.5,328.5 Z"/></g>
<g><path style="opacity:1" fill="#d0d3d8" d="M 303.5,353.5 C 305.117,354.038 306.784,354.371 308.5,354.5C 308.53,355.497 308.03,356.164 307,356.5C 303.522,357.329 300.022,357.996 296.5,358.5C 296.769,356.571 296.269,354.905 295,353.5C 287.696,363.701 278.196,366.534 266.5,362C 262.908,359.079 260.075,355.579 258,351.5C 254.258,338.288 251.092,324.955 248.5,311.5C 248.775,309.242 249.775,308.908 251.5,310.5C 253.964,321.914 256.464,333.248 259,344.5C 260.408,348.831 262.908,352.331 266.5,355C 276.599,359.726 285.265,358.06 292.5,350C 293.333,349.833 294.167,349.667 295,349.5C 297.678,351.229 300.512,352.562 303.5,353.5 Z"/></g>
<g><path style="opacity:1" fill="#272d2d" d="M 228.5,358.5 C 227.74,362.361 225.74,365.361 222.5,367.5C 217.797,367.563 213.13,367.229 208.5,366.5C 206.748,364.754 205.415,362.754 204.5,360.5C 206.609,361.391 208.609,362.558 210.5,364C 218.131,367.065 224.131,365.232 228.5,358.5 Z"/></g>
<g><path style="opacity:1" fill="#cfd2d8" d="M 197.5,354.5 C 199.103,356.98 200.603,359.646 202,362.5C 203.972,364.232 206.139,365.565 208.5,366.5C 209.429,367.315 210.429,368.148 211.5,369C 216.201,369.719 220.867,369.553 225.5,368.5C 228.191,366.797 230.857,365.13 233.5,363.5C 235.61,364.054 237.61,364.888 239.5,366C 243.18,373.041 245.68,380.541 247,388.5C 248.129,390.141 249.629,391.141 251.5,391.5C 251.833,391.5 252.167,391.5 252.5,391.5C 252.586,392.496 252.252,393.329 251.5,394C 247.506,394.945 243.506,395.778 239.5,396.5C 239.5,395.167 239.5,393.833 239.5,392.5C 239.59,389.848 238.924,387.515 237.5,385.5C 237.312,379.226 235.979,373.226 233.5,367.5C 227.057,376.263 218.39,379.43 207.5,377C 195.826,371.143 189.493,361.643 188.5,348.5C 188.351,347.448 188.517,346.448 189,345.5C 192.769,347.764 195.602,350.764 197.5,354.5 Z"/></g>
<g><path style="opacity:1" fill="#cdd0d6" d="M 159.5,388.5 C 155.334,390.076 151,391.409 146.5,392.5C 146.721,389.721 146.388,387.054 145.5,384.5C 145.59,381.848 144.924,379.515 143.5,377.5C 142.791,370.708 141.458,364.041 139.5,357.5C 139.59,354.848 138.924,352.515 137.5,350.5C 137.5,349.167 137.5,347.833 137.5,346.5C 138.382,344.916 139.215,343.249 140,341.5C 144.94,350.477 148.94,359.81 152,369.5C 152.28,374.197 152.78,378.863 153.5,383.5C 154.885,385.883 156.885,387.55 159.5,388.5 Z"/></g>
<g><path style="opacity:1" fill="#3b3c3e" d="M 169.5,370.5 C 170.66,374.681 171.66,379.015 172.5,383.5C 169.965,379.645 168.965,375.312 169.5,370.5 Z"/></g>
<g><path style="opacity:1" fill="#555658" d="M 143.5,377.5 C 144.924,379.515 145.59,381.848 145.5,384.5C 144.076,382.485 143.41,380.152 143.5,377.5 Z"/></g>
<g><path style="opacity:1" fill="#525355" d="M 237.5,385.5 C 238.924,387.515 239.59,389.848 239.5,392.5C 238.076,390.485 237.41,388.152 237.5,385.5 Z"/></g>
</svg>
